<svg width="32" height="32" viewBox="0 0 32 32" fill="none" xmlns="http://www.w3.org/2000/svg">
<g clip-path="url(#clip0_10_1097)">
<rect width="32" height="32" rx="16" fill="#475CD6"/>
<g clip-path="url(#clip1_10_1097)">
<path d="M11.6001 21.5626V10.3048C11.6001 10.1501 11.6488 10.0241 11.7462 9.92666C11.8493 9.82353 11.9754 9.77197 12.1243 9.77197H13.7829C13.9319 9.77197 14.0551 9.82353 14.1525 9.92666C14.2556 10.0241 14.3071 10.1501 14.3071 10.3048V10.5626C15.2123 9.92093 16.2637 9.6001 17.461 9.6001C18.6584 9.6001 19.6582 10.0241 20.4603 10.872C21.2623 11.7142 21.6634 12.923 21.6634 14.4985C21.6634 16.0683 21.248 17.2715 20.4173 18.1079C19.5865 18.9444 18.4665 19.3626 17.0571 19.3626C16.3295 19.3626 15.5017 19.2165 14.5735 18.9243V21.5626C14.5735 21.7173 14.522 21.8433 14.4189 21.9407C14.3215 22.0439 14.1983 22.0954 14.0493 22.0954H12.1243C11.9754 22.0954 11.8493 22.0439 11.7462 21.9407C11.6488 21.8433 11.6001 21.7173 11.6001 21.5626ZM14.5735 16.9392C15.3126 17.1741 15.9342 17.2915 16.4384 17.2915C17.2233 17.2915 17.779 17.0681 18.1056 16.6212C18.4379 16.1743 18.604 15.461 18.604 14.4813C18.604 13.5017 18.4465 12.7913 18.1313 12.3501C17.822 11.9032 17.3551 11.6798 16.7306 11.6798C16.1118 11.6798 15.3928 11.9376 14.5735 12.4532V16.9392Z" fill="#475CD6"/>
<path fill-rule="evenodd" clip-rule="evenodd" d="M11.6 10.3047V21.5625C11.6 21.7172 11.6487 21.8432 11.7461 21.9406C11.8492 22.0438 11.9753 22.0953 12.1242 22.0953H14.0492C14.1982 22.0953 14.3214 22.0438 14.4188 21.9406C14.5219 21.8432 14.5734 21.7172 14.5734 21.5625V18.9242C15.1448 19.1041 15.6781 19.2286 16.1734 19.2977C16.4828 19.3409 16.7773 19.3625 17.057 19.3625C18.4664 19.3625 19.5864 18.9443 20.4172 18.1078C21.2479 17.2714 21.6633 16.0682 21.6633 14.4984C21.6633 12.9229 21.2622 11.7141 20.4602 10.8719C19.6581 10.024 18.6583 9.6 17.4609 9.6C16.8919 9.6 16.3559 9.67246 15.8528 9.81737C15.4501 9.93338 15.0686 10.0958 14.7082 10.3047C14.5714 10.3839 14.4377 10.4699 14.307 10.5625V10.3047C14.307 10.15 14.2555 10.024 14.1524 9.92656C14.055 9.82344 13.9318 9.77188 13.7828 9.77188H12.1242C11.9753 9.77188 11.8492 9.82344 11.7461 9.92656C11.6487 10.024 11.6 10.15 11.6 10.3047ZM14.8614 8.46362C14.532 8.26812 14.1601 8.17188 13.7828 8.17188H12.1242C11.5611 8.17188 11.025 8.38489 10.6147 8.79519C10.1792 9.2307 10 9.78268 10 10.3047V21.5625C10 22.0845 10.1792 22.6365 10.6147 23.072C11.025 23.4823 11.5611 23.6953 12.1242 23.6953H14.0492C14.5994 23.6953 15.1379 23.4907 15.5503 23.0721C15.9811 22.6475 16.1734 22.0996 16.1734 21.5625V20.9104C16.4733 20.9447 16.768 20.9625 17.057 20.9625C18.8032 20.9625 20.3637 20.4322 21.5524 19.2353C22.7692 18.0101 23.2633 16.346 23.2633 14.4984C23.2633 12.6617 22.7929 11.0026 21.6208 9.77054C20.508 8.59513 19.0844 8 17.4609 8C16.5447 8 15.6735 8.15212 14.8614 8.46362ZM18.1312 12.35C18.4464 12.7912 18.6039 13.5016 18.6039 14.4812C18.6039 15.4609 18.4378 16.1742 18.1055 16.6211C17.7789 17.068 17.2232 17.2914 16.4383 17.2914C15.9341 17.2914 15.3125 17.174 14.5734 16.9391V12.4531C15.3927 11.9375 16.1117 11.6797 16.7305 11.6797C17.355 11.6797 17.8219 11.9031 18.1312 12.35ZM16.1734 13.4147V15.6747C16.2749 15.6863 16.363 15.6914 16.4383 15.6914C16.665 15.6914 16.7857 15.6611 16.8348 15.6438C16.8399 15.6342 16.8462 15.6212 16.8535 15.6044C16.8732 15.5586 16.8976 15.4886 16.921 15.388C16.9689 15.1826 17.0039 14.8871 17.0039 14.4812C17.0039 14.0706 16.9703 13.7702 16.9237 13.5601C16.8853 13.387 16.8454 13.308 16.833 13.2863C16.8114 13.283 16.7781 13.2797 16.7305 13.2797C16.6211 13.2797 16.4388 13.3087 16.1734 13.4147Z" fill="#E8EEFF"/>
</g>
</g>
<defs>
<clipPath id="clip0_10_1097">
<rect width="32" height="32" fill="white"/>
</clipPath>
<clipPath id="clip1_10_1097">
<rect width="13.6" height="16" fill="white" transform="translate(10 8)"/>
</clipPath>
</defs>
</svg>
